<svg xmlns="http://www.w3.org/2000/svg" viewBox="0 0 900 600">
  <rect width="900" height="600" fill="#DE2910"/>
  <g fill="#FFDE00">
    <path d="M 150,100 L 180,180 L 260,180 L 200,220 L 230,300 L 150,250 L 70,300 L 100,220 L 40,180 L 120,180 Z"/>
    <path d="M 300,60 L 310,90 L 340,80 L 320,110 L 340,130 L 310,120 L 300,150 L 290,120 L 260,130 L 280,110 Z"/>
    <path d="M 360,130 L 370,160 L 400,150 L 380,180 L 400,200 L 370,190 L 360,220 L 350,190 L 320,200 L 340,180 Z"/>
    <path d="M 360,230 L 370,260 L 400,250 L 380,280 L 400,300 L 370,290 L 360,320 L 350,290 L 320,300 L 340,280 Z"/>
    <path d="M 300,300 L 310,330 L 340,320 L 320,350 L 340,370 L 310,360 L 300,390 L 290,360 L 260,370 L 280,350 Z"/>
  </g>
</svg>