<svg xmlns="http://www.w3.org/2000/svg" viewBox="0 0 900 600">
  <rect width="900" height="600" fill="#FFF"/>
  <g transform="translate(450,300)">
    <circle r="120" fill="#FFF"/>
    <path d="M 0,-120 A 120,120 0 0,1 0,0 A 60,60 0 0,1 0,-120 Z" fill="#C60C30"/>
    <path d="M 0,0 A 120,120 0 0,1 0,120 A 60,60 0 0,0 0,0 Z" fill="#003478"/>
    <g transform="translate(180,-80) rotate(56.31)">
      <rect x="-40" y="-6" width="80" height="12" rx="6"/>
      <rect x="-40" y="20" width="80" height="12" rx="6"/>
      <rect x="-40" y="46" width="80" height="12" rx="6"/>
    </g>
    <g transform="translate(-180,-80) rotate(-56.31)">
      <rect x="-40" y="-6" width="27" height="12" rx="6"/>
      <rect x="13" y="-6" width="27" height="12" rx="6"/>
      <rect x="-40" y="20" width="80" height="12" rx="6"/>
      <rect x="-40" y="46" width="27" height="12" rx="6"/>
      <rect x="13" y="46" width="27" height="12" rx="6"/>
    </g>
    <g transform="translate(-180,80) rotate(-123.69)">
      <rect x="-40" y="-6" width="27" height="12" rx="6"/>
      <rect x="13" y="-6" width="27" height="12" rx="6"/>
      <rect x="-40" y="20" width="27" height="12" rx="6"/>
      <rect x="13" y="20" width="27" height="12" rx="6"/>
      <rect x="-40" y="46" width="80" height="12" rx="6"/>
    </g>
    <g transform="translate(180,80) rotate(123.69)">
      <rect x="-40" y="-6" width="80" height="12" rx="6"/>
      <rect x="-40" y="20" width="27" height="12" rx="6"/>
      <rect x="13" y="20" width="27" height="12" rx="6"/>
      <rect x="-40" y="46" width="80" height="12" rx="6"/>
    </g>
  </g>
</svg>